<mxfile host="app.diagrams.net" modified="2024-05-05T20:52:59.762Z" agent="Mozilla/5.0 (Windows NT 10.0; Win64; x64) AppleWebKit/537.36 (KHTML, like Gecko) Chrome/124.0.0.0 Safari/537.36" etag="qwO6CKAqsR3sm3DqOhlO" version="24.3.1" type="github" pages="2">
  <diagram name="페이지-1" id="zOAeg8T45N49be0nf4yD">
    <mxGraphModel dx="1434" dy="833" grid="0" gridSize="10" guides="1" tooltips="1" connect="1" arrows="1" fold="1" page="0" pageScale="1" pageWidth="827" pageHeight="1169" background="none" math="0" shadow="0">
      <root>
        <mxCell id="0" />
        <mxCell id="1" parent="0" />
        <mxCell id="T2-gsKvPVnzZv-vGDISG-6" style="edgeStyle=orthogonalEdgeStyle;rounded=0;orthogonalLoop=1;jettySize=auto;html=1;" edge="1" parent="1" source="T2-gsKvPVnzZv-vGDISG-1" target="T2-gsKvPVnzZv-vGDISG-5">
          <mxGeometry relative="1" as="geometry">
            <Array as="points">
              <mxPoint x="230" y="270" />
              <mxPoint x="420" y="270" />
            </Array>
          </mxGeometry>
        </mxCell>
        <mxCell id="T2-gsKvPVnzZv-vGDISG-1" value="Element" style="rounded=1;whiteSpace=wrap;html=1;" vertex="1" parent="1">
          <mxGeometry x="170" y="310" width="120" height="60" as="geometry" />
        </mxCell>
        <mxCell id="T2-gsKvPVnzZv-vGDISG-7" style="edgeStyle=orthogonalEdgeStyle;rounded=0;orthogonalLoop=1;jettySize=auto;html=1;" edge="1" parent="1" source="T2-gsKvPVnzZv-vGDISG-2" target="T2-gsKvPVnzZv-vGDISG-5">
          <mxGeometry relative="1" as="geometry" />
        </mxCell>
        <mxCell id="T2-gsKvPVnzZv-vGDISG-2" value="Element" style="rounded=1;whiteSpace=wrap;html=1;" vertex="1" parent="1">
          <mxGeometry x="300" y="310" width="120" height="60" as="geometry" />
        </mxCell>
        <mxCell id="T2-gsKvPVnzZv-vGDISG-8" style="edgeStyle=orthogonalEdgeStyle;rounded=0;orthogonalLoop=1;jettySize=auto;html=1;" edge="1" parent="1" source="T2-gsKvPVnzZv-vGDISG-3" target="T2-gsKvPVnzZv-vGDISG-5">
          <mxGeometry relative="1" as="geometry" />
        </mxCell>
        <mxCell id="T2-gsKvPVnzZv-vGDISG-3" value="Element" style="rounded=1;whiteSpace=wrap;html=1;" vertex="1" parent="1">
          <mxGeometry x="430" y="310" width="120" height="60" as="geometry" />
        </mxCell>
        <mxCell id="T2-gsKvPVnzZv-vGDISG-9" style="edgeStyle=orthogonalEdgeStyle;rounded=0;orthogonalLoop=1;jettySize=auto;html=1;" edge="1" parent="1" source="T2-gsKvPVnzZv-vGDISG-4" target="T2-gsKvPVnzZv-vGDISG-5">
          <mxGeometry relative="1" as="geometry">
            <Array as="points">
              <mxPoint x="620" y="270" />
              <mxPoint x="420" y="270" />
            </Array>
          </mxGeometry>
        </mxCell>
        <mxCell id="T2-gsKvPVnzZv-vGDISG-4" value="Element" style="rounded=1;whiteSpace=wrap;html=1;" vertex="1" parent="1">
          <mxGeometry x="560" y="310" width="120" height="60" as="geometry" />
        </mxCell>
        <mxCell id="T2-gsKvPVnzZv-vGDISG-5" value="Component" style="rounded=1;whiteSpace=wrap;html=1;" vertex="1" parent="1">
          <mxGeometry x="360" y="170" width="120" height="60" as="geometry" />
        </mxCell>
        <mxCell id="T2-gsKvPVnzZv-vGDISG-11" value="&lt;span style=&quot;font-weight: 400;&quot;&gt;React 기본 구조&lt;/span&gt;" style="swimlane;whiteSpace=wrap;html=1;" vertex="1" parent="1">
          <mxGeometry x="130" y="110" width="590" height="300" as="geometry" />
        </mxCell>
        <mxCell id="T2-gsKvPVnzZv-vGDISG-14" style="edgeStyle=orthogonalEdgeStyle;rounded=0;orthogonalLoop=1;jettySize=auto;html=1;" edge="1" parent="1" source="T2-gsKvPVnzZv-vGDISG-12" target="T2-gsKvPVnzZv-vGDISG-13">
          <mxGeometry relative="1" as="geometry">
            <Array as="points">
              <mxPoint x="240" y="860" />
              <mxPoint x="240" y="860" />
            </Array>
          </mxGeometry>
        </mxCell>
        <mxCell id="T2-gsKvPVnzZv-vGDISG-15" value="상태 제어 함수 + 속성" style="edgeLabel;html=1;align=center;verticalAlign=middle;resizable=0;points=[];" vertex="1" connectable="0" parent="T2-gsKvPVnzZv-vGDISG-14">
          <mxGeometry x="-0.0132" y="-3" relative="1" as="geometry">
            <mxPoint x="3" y="-13" as="offset" />
          </mxGeometry>
        </mxCell>
        <mxCell id="T2-gsKvPVnzZv-vGDISG-12" value="Component" style="rounded=1;whiteSpace=wrap;html=1;" vertex="1" parent="1">
          <mxGeometry x="180" y="660" width="120" height="60" as="geometry" />
        </mxCell>
        <mxCell id="T2-gsKvPVnzZv-vGDISG-13" value="Component" style="rounded=1;whiteSpace=wrap;html=1;" vertex="1" parent="1">
          <mxGeometry x="180" y="880" width="120" height="60" as="geometry" />
        </mxCell>
        <mxCell id="T2-gsKvPVnzZv-vGDISG-17" style="edgeStyle=orthogonalEdgeStyle;rounded=0;orthogonalLoop=1;jettySize=auto;html=1;" edge="1" source="T2-gsKvPVnzZv-vGDISG-19" target="T2-gsKvPVnzZv-vGDISG-20" parent="1">
          <mxGeometry relative="1" as="geometry">
            <Array as="points">
              <mxPoint x="480" y="860" />
              <mxPoint x="480" y="860" />
            </Array>
          </mxGeometry>
        </mxCell>
        <mxCell id="T2-gsKvPVnzZv-vGDISG-18" value="속성" style="edgeLabel;html=1;align=center;verticalAlign=middle;resizable=0;points=[];" vertex="1" connectable="0" parent="T2-gsKvPVnzZv-vGDISG-17">
          <mxGeometry x="-0.0132" y="-3" relative="1" as="geometry">
            <mxPoint x="3" y="-13" as="offset" />
          </mxGeometry>
        </mxCell>
        <mxCell id="T2-gsKvPVnzZv-vGDISG-19" value="Component" style="rounded=1;whiteSpace=wrap;html=1;" vertex="1" parent="1">
          <mxGeometry x="420" y="660" width="120" height="60" as="geometry" />
        </mxCell>
        <mxCell id="T2-gsKvPVnzZv-vGDISG-20" value="Component" style="rounded=1;whiteSpace=wrap;html=1;" vertex="1" parent="1">
          <mxGeometry x="420" y="880" width="120" height="60" as="geometry" />
        </mxCell>
        <mxCell id="T2-gsKvPVnzZv-vGDISG-21" value="유상태 컴포넌트" style="swimlane;whiteSpace=wrap;html=1;" vertex="1" parent="1">
          <mxGeometry x="140" y="620" width="200" height="340" as="geometry" />
        </mxCell>
        <mxCell id="T2-gsKvPVnzZv-vGDISG-22" value="무상태 컴포넌트" style="swimlane;whiteSpace=wrap;html=1;" vertex="1" parent="1">
          <mxGeometry x="380" y="620" width="200" height="340" as="geometry" />
        </mxCell>
        <mxCell id="T2-gsKvPVnzZv-vGDISG-23" value="&lt;h1 style=&quot;margin-top: 0px;&quot;&gt;Element&lt;/h1&gt;&lt;p style=&quot;font-size: 14px;&quot;&gt;&lt;span style=&quot;font-family: -apple-system, BlinkMacSystemFont, &amp;quot;Segoe UI&amp;quot;, Roboto, Oxygen, Ubuntu, Cantarell, &amp;quot;Fira Sans&amp;quot;, &amp;quot;Droid Sans&amp;quot;, &amp;quot;Helvetica Neue&amp;quot;, sans-serif;&quot;&gt;React 엘리먼트는&amp;nbsp;&lt;/span&gt;&lt;a style=&quot;margin: 0px; padding: 0px; box-sizing: inherit; background-color: rgba(187, 239, 253, 0.3); color: rgb(26, 26, 26); text-decoration-line: none; border-bottom: 1px solid rgba(0, 0, 0, 0.2); font-family: -apple-system, BlinkMacSystemFont, &amp;quot;Segoe UI&amp;quot;, Roboto, Oxygen, Ubuntu, Cantarell, &amp;quot;Fira Sans&amp;quot;, &amp;quot;Droid Sans&amp;quot;, &amp;quot;Helvetica Neue&amp;quot;, sans-serif;&quot; rel=&quot;nofollow noopener noreferrer&quot; target=&quot;_blank&quot; href=&quot;https://ko.wikipedia.org/wiki/%EB%B6%88%EB%B3%80%EA%B0%9D%EC%B2%B4&quot;&gt;불변객체&lt;/a&gt;&lt;span style=&quot;font-family: -apple-system, BlinkMacSystemFont, &amp;quot;Segoe UI&amp;quot;, Roboto, Oxygen, Ubuntu, Cantarell, &amp;quot;Fira Sans&amp;quot;, &amp;quot;Droid Sans&amp;quot;, &amp;quot;Helvetica Neue&amp;quot;, sans-serif;&quot;&gt;입니다. 엘리먼트를 생성한 이후에는 해당 엘리먼트의 자식이나 속성을 변경할 수 없습니다. 엘리먼트는 영화에서 하나의 프레임과 같이 특정 시점의 UI를 보여줍니다.&lt;/span&gt;&lt;br&gt;&lt;/p&gt;" style="text;html=1;whiteSpace=wrap;overflow=hidden;rounded=0;" vertex="1" parent="1">
          <mxGeometry x="760" y="290" width="370" height="130" as="geometry" />
        </mxCell>
        <mxCell id="FA-iPjcQ_C9Vn1fqMLGA-2" value="&lt;h1 style=&quot;margin-top: 0px;&quot;&gt;props&lt;/h1&gt;&lt;p style=&quot;font-size: 14px;&quot;&gt;&lt;span style=&quot;font-family: -apple-system, BlinkMacSystemFont, &amp;quot;Segoe UI&amp;quot;, Roboto, Oxygen, Ubuntu, Cantarell, &amp;quot;Fira Sans&amp;quot;, &amp;quot;Droid Sans&amp;quot;, &amp;quot;Helvetica Neue&amp;quot;, sans-serif;&quot;&gt;함수 컴포넌트나 클래스 컴포넌트 모두 컴포넌트의 자체 props를 수정해서는 안 됩니다&lt;br&gt;&lt;/span&gt;&lt;br&gt;&lt;span style=&quot;margin: 0px; padding: 0px; box-sizing: inherit; font-family: -apple-system, BlinkMacSystemFont, &amp;quot;Segoe UI&amp;quot;, Roboto, Oxygen, Ubuntu, Cantarell, &amp;quot;Fira Sans&amp;quot;, &amp;quot;Droid Sans&amp;quot;, &amp;quot;Helvetica Neue&amp;quot;, sans-serif;&quot;&gt;모든 React 컴포넌트는 자신의 props를 다룰 때 반드시 순수 함수처럼 동작해야 합니다.&lt;/span&gt;&lt;br&gt;&lt;/p&gt;" style="text;html=1;whiteSpace=wrap;overflow=hidden;rounded=0;" vertex="1" parent="1">
          <mxGeometry x="620" y="730" width="400" height="170" as="geometry" />
        </mxCell>
        <mxCell id="nPMxnXr1y_mv6cNNuZ6e-4" style="edgeStyle=orthogonalEdgeStyle;rounded=0;orthogonalLoop=1;jettySize=auto;html=1;" edge="1" parent="1" source="nPMxnXr1y_mv6cNNuZ6e-1" target="nPMxnXr1y_mv6cNNuZ6e-3">
          <mxGeometry relative="1" as="geometry">
            <Array as="points">
              <mxPoint x="250" y="1150" />
            </Array>
          </mxGeometry>
        </mxCell>
        <mxCell id="nPMxnXr1y_mv6cNNuZ6e-5" value="상태 끌어올리기" style="edgeLabel;html=1;align=center;verticalAlign=middle;resizable=0;points=[];" vertex="1" connectable="0" parent="nPMxnXr1y_mv6cNNuZ6e-4">
          <mxGeometry x="-0.0105" relative="1" as="geometry">
            <mxPoint as="offset" />
          </mxGeometry>
        </mxCell>
        <mxCell id="nPMxnXr1y_mv6cNNuZ6e-1" value="Component" style="rounded=1;whiteSpace=wrap;html=1;" vertex="1" parent="1">
          <mxGeometry x="190" y="1240" width="120" height="60" as="geometry" />
        </mxCell>
        <mxCell id="nPMxnXr1y_mv6cNNuZ6e-2" value="Component" style="rounded=1;whiteSpace=wrap;html=1;" vertex="1" parent="1">
          <mxGeometry x="470" y="1240" width="120" height="60" as="geometry" />
        </mxCell>
        <mxCell id="nPMxnXr1y_mv6cNNuZ6e-6" style="edgeStyle=orthogonalEdgeStyle;rounded=0;orthogonalLoop=1;jettySize=auto;html=1;" edge="1" parent="1" source="nPMxnXr1y_mv6cNNuZ6e-3" target="nPMxnXr1y_mv6cNNuZ6e-2">
          <mxGeometry relative="1" as="geometry">
            <Array as="points">
              <mxPoint x="400" y="1270" />
            </Array>
          </mxGeometry>
        </mxCell>
        <mxCell id="nPMxnXr1y_mv6cNNuZ6e-7" value="상태 함수 제공" style="edgeLabel;html=1;align=center;verticalAlign=middle;resizable=0;points=[];" vertex="1" connectable="0" parent="nPMxnXr1y_mv6cNNuZ6e-6">
          <mxGeometry x="0.0598" relative="1" as="geometry">
            <mxPoint x="-3" y="-44" as="offset" />
          </mxGeometry>
        </mxCell>
        <mxCell id="nPMxnXr1y_mv6cNNuZ6e-8" style="edgeStyle=orthogonalEdgeStyle;rounded=0;orthogonalLoop=1;jettySize=auto;html=1;" edge="1" parent="1" source="nPMxnXr1y_mv6cNNuZ6e-3" target="nPMxnXr1y_mv6cNNuZ6e-1">
          <mxGeometry relative="1" as="geometry">
            <Array as="points">
              <mxPoint x="400" y="1270" />
            </Array>
          </mxGeometry>
        </mxCell>
        <mxCell id="nPMxnXr1y_mv6cNNuZ6e-3" value="Component" style="rounded=1;whiteSpace=wrap;html=1;fillColor=#f5f5f5;fontColor=#333333;strokeColor=#666666;" vertex="1" parent="1">
          <mxGeometry x="340" y="1120" width="120" height="60" as="geometry" />
        </mxCell>
      </root>
    </mxGraphModel>
  </diagram>
  <diagram id="JV7vmqex92Uz3KkzgDQ9" name="페이지-2">
    <mxGraphModel dx="1195" dy="694" grid="0" gridSize="10" guides="1" tooltips="1" connect="1" arrows="1" fold="1" page="0" pageScale="1" pageWidth="827" pageHeight="1169" math="0" shadow="0">
      <root>
        <mxCell id="0" />
        <mxCell id="1" parent="0" />
        <mxCell id="NB6fT7P_LlFqN1GJujJi-6" value="Class Component" style="swimlane;whiteSpace=wrap;html=1;" vertex="1" parent="1">
          <mxGeometry x="270" y="160" width="360" height="260" as="geometry" />
        </mxCell>
        <mxCell id="NB6fT7P_LlFqN1GJujJi-8" value="componentDidMount" style="rounded=1;whiteSpace=wrap;html=1;" vertex="1" parent="NB6fT7P_LlFqN1GJujJi-6">
          <mxGeometry x="190" y="50" width="120" height="60" as="geometry" />
        </mxCell>
        <mxCell id="NB6fT7P_LlFqN1GJujJi-9" value="componentDidUpdate" style="rounded=1;whiteSpace=wrap;html=1;" vertex="1" parent="NB6fT7P_LlFqN1GJujJi-6">
          <mxGeometry x="190" y="120" width="120" height="60" as="geometry" />
        </mxCell>
        <mxCell id="NB6fT7P_LlFqN1GJujJi-10" value="componentWill&lt;br&gt;UnMount" style="rounded=1;whiteSpace=wrap;html=1;" vertex="1" parent="NB6fT7P_LlFqN1GJujJi-6">
          <mxGeometry x="190" y="190" width="120" height="60" as="geometry" />
        </mxCell>
        <mxCell id="NB6fT7P_LlFqN1GJujJi-1" value="this.state" style="rounded=1;whiteSpace=wrap;html=1;" vertex="1" parent="NB6fT7P_LlFqN1GJujJi-6">
          <mxGeometry x="40" y="65" width="120" height="60" as="geometry" />
        </mxCell>
        <mxCell id="NB6fT7P_LlFqN1GJujJi-2" value="this.setState" style="rounded=1;whiteSpace=wrap;html=1;" vertex="1" parent="NB6fT7P_LlFqN1GJujJi-6">
          <mxGeometry x="40" y="175" width="120" height="60" as="geometry" />
        </mxCell>
        <mxCell id="NB6fT7P_LlFqN1GJujJi-3" style="edgeStyle=orthogonalEdgeStyle;rounded=0;orthogonalLoop=1;jettySize=auto;html=1;" edge="1" parent="NB6fT7P_LlFqN1GJujJi-6" source="NB6fT7P_LlFqN1GJujJi-2" target="NB6fT7P_LlFqN1GJujJi-1">
          <mxGeometry relative="1" as="geometry" />
        </mxCell>
        <mxCell id="NB6fT7P_LlFqN1GJujJi-7" value="상태 변화" style="edgeLabel;html=1;align=center;verticalAlign=middle;resizable=0;points=[];" vertex="1" connectable="0" parent="NB6fT7P_LlFqN1GJujJi-3">
          <mxGeometry x="0.0267" y="-4" relative="1" as="geometry">
            <mxPoint x="-4" as="offset" />
          </mxGeometry>
        </mxCell>
        <mxCell id="NB6fT7P_LlFqN1GJujJi-11" value="Funtional Component" style="swimlane;whiteSpace=wrap;html=1;" vertex="1" parent="1">
          <mxGeometry x="700" y="160" width="200" height="260" as="geometry" />
        </mxCell>
        <mxCell id="NB6fT7P_LlFqN1GJujJi-12" value="useState" style="rounded=1;whiteSpace=wrap;html=1;" vertex="1" parent="NB6fT7P_LlFqN1GJujJi-11">
          <mxGeometry x="40" y="65" width="120" height="60" as="geometry" />
        </mxCell>
        <mxCell id="NB6fT7P_LlFqN1GJujJi-13" value="useEffect" style="rounded=1;whiteSpace=wrap;html=1;" vertex="1" parent="NB6fT7P_LlFqN1GJujJi-11">
          <mxGeometry x="40" y="135" width="120" height="60" as="geometry" />
        </mxCell>
      </root>
    </mxGraphModel>
  </diagram>
</mxfile>
